<svg width="248" height="113" viewBox="0 0 248 113" fill="none" xmlns="http://www.w3.org/2000/svg">
<g filter="url(#filter0_d)">
<path d="M26.2551 68.6072C15.9873 63.32 16.3079 48.5184 26.7985 43.5232L94.4502 11.3098C103.855 6.83173 114.616 13.7537 114.391 24.1361L112.955 90.4458C112.73 100.828 101.675 107.443 92.4705 102.703L26.2551 68.6072Z" fill="#23B5B5"/>
</g>
<g filter="url(#filter1_d)">
<path d="M133.947 46.8982H125.65V52.5159H135.387V55.9873H121.329V35.0146H135.358V38.5149H125.65V43.5132H133.947V46.8982ZM142.042 55.9873H137.865V33.8623H142.042V55.9873ZM152.658 56.2754C150.372 56.2754 148.509 55.5744 147.069 54.1724C145.638 52.7703 144.923 50.9026 144.923 48.5691V48.1658C144.923 46.6005 145.225 45.2033 145.83 43.9741C146.435 42.7354 147.29 41.7847 148.394 41.1221C149.508 40.4499 150.776 40.1138 152.197 40.1138C154.329 40.1138 156.004 40.786 157.224 42.1304C158.453 43.4748 159.068 45.3809 159.068 47.8489V49.5486H149.143C149.278 50.5665 149.681 51.3827 150.353 51.9973C151.035 52.6119 151.894 52.9192 152.932 52.9192C154.535 52.9192 155.788 52.3382 156.691 51.1763L158.736 53.4666C158.112 54.35 157.267 55.0414 156.201 55.5408C155.135 56.0305 153.954 56.2754 152.658 56.2754ZM152.183 43.4844C151.357 43.4844 150.684 43.7629 150.166 44.3198C149.657 44.8768 149.33 45.6738 149.186 46.7109H154.977V46.3796C154.958 45.4578 154.708 44.7472 154.228 44.2478C153.748 43.7389 153.066 43.4844 152.183 43.4844ZM165.348 40.4019L165.478 42.1448C166.582 40.7908 168.075 40.1138 169.957 40.1138C171.964 40.1138 173.342 40.906 174.091 42.4905C175.186 40.906 176.747 40.1138 178.773 40.1138C180.463 40.1138 181.721 40.6083 182.547 41.5974C183.373 42.5769 183.786 44.0557 183.786 46.0339V55.9873H179.608V46.0483C179.608 45.1649 179.435 44.5215 179.09 44.1182C178.744 43.7052 178.134 43.4988 177.26 43.4988C176.012 43.4988 175.148 44.0942 174.668 45.2849L174.682 55.9873H170.519V46.0627C170.519 45.1601 170.342 44.5071 169.986 44.1038C169.631 43.7004 169.026 43.4988 168.171 43.4988C166.99 43.4988 166.136 43.9885 165.607 44.968V55.9873H161.445V40.4019H165.348ZM194.171 56.2754C191.886 56.2754 190.023 55.5744 188.582 54.1724C187.151 52.7703 186.436 50.9026 186.436 48.5691V48.1658C186.436 46.6005 186.738 45.2033 187.343 43.9741C187.948 42.7354 188.803 41.7847 189.907 41.1221C191.021 40.4499 192.289 40.1138 193.71 40.1138C195.842 40.1138 197.518 40.786 198.737 42.1304C199.966 43.4748 200.581 45.3809 200.581 47.8489V49.5486H190.656C190.791 50.5665 191.194 51.3827 191.866 51.9973C192.548 52.6119 193.408 52.9192 194.445 52.9192C196.048 52.9192 197.302 52.3382 198.204 51.1763L200.25 53.4666C199.625 54.35 198.78 55.0414 197.715 55.5408C196.649 56.0305 195.467 56.2754 194.171 56.2754ZM193.696 43.4844C192.87 43.4844 192.198 43.7629 191.679 44.3198C191.17 44.8768 190.844 45.6738 190.7 46.7109H196.49V46.3796C196.471 45.4578 196.221 44.7472 195.741 44.2478C195.261 43.7389 194.579 43.4844 193.696 43.4844ZM206.789 40.4019L206.919 42.2024C208.033 40.81 209.526 40.1138 211.399 40.1138C213.05 40.1138 214.279 40.5987 215.086 41.5686C215.893 42.5385 216.306 43.9885 216.325 45.9187V55.9873H212.162V46.0195C212.162 45.1361 211.97 44.4975 211.586 44.1038C211.202 43.7004 210.563 43.4988 209.67 43.4988C208.499 43.4988 207.62 43.9981 207.034 44.9968V55.9873H202.871V40.4019H206.789ZM224.478 36.5703V40.4019H227.143V43.4556H224.478V51.2339C224.478 51.8101 224.588 52.223 224.809 52.4727C225.03 52.7223 225.452 52.8472 226.077 52.8472C226.538 52.8472 226.946 52.8136 227.301 52.7463V55.9009C226.485 56.1506 225.644 56.2754 224.78 56.2754C221.861 56.2754 220.372 54.8014 220.315 51.8533V43.4556H218.039V40.4019H220.315V36.5703H224.478ZM228.381 48.0505C228.381 46.5045 228.679 45.1265 229.274 43.9165C229.87 42.7065 230.724 41.7703 231.838 41.1077C232.962 40.4451 234.263 40.1138 235.742 40.1138C237.845 40.1138 239.559 40.7572 240.884 42.0439C242.219 43.3307 242.963 45.0785 243.117 47.2871L243.146 48.353C243.146 50.7441 242.478 52.6647 241.143 54.1147C239.809 55.5552 238.018 56.2754 235.771 56.2754C233.524 56.2754 231.728 55.5552 230.383 54.1147C229.049 52.6743 228.381 50.7153 228.381 48.2378V48.0505ZM232.544 48.353C232.544 49.8319 232.823 50.965 233.38 51.7524C233.937 52.5303 234.734 52.9192 235.771 52.9192C236.779 52.9192 237.566 52.5351 238.133 51.7668C238.7 50.989 238.983 49.7502 238.983 48.0505C238.983 46.6005 238.7 45.477 238.133 44.6799C237.566 43.8829 236.769 43.4844 235.742 43.4844C234.724 43.4844 233.937 43.8829 233.38 44.6799C232.823 45.4674 232.544 46.6917 232.544 48.353ZM132.204 85.4849C132.204 84.6686 131.916 84.0444 131.34 83.6123C130.763 83.1706 129.726 82.7096 128.228 82.2295C126.73 81.7397 125.544 81.2596 124.67 80.7891C122.289 79.5023 121.098 77.769 121.098 75.5891C121.098 74.456 121.415 73.4477 122.049 72.5642C122.692 71.6711 123.609 70.9749 124.8 70.4756C126 69.9762 127.345 69.7266 128.833 69.7266C130.331 69.7266 131.666 70.0002 132.838 70.5476C134.009 71.0854 134.917 71.8488 135.56 72.8379C136.213 73.827 136.539 74.9505 136.539 76.2085H132.218C132.218 75.2482 131.916 74.504 131.311 73.9758C130.706 73.4381 129.856 73.1692 128.761 73.1692C127.705 73.1692 126.884 73.3949 126.298 73.8462C125.712 74.2879 125.419 74.8737 125.419 75.6035C125.419 76.2853 125.76 76.8567 126.442 77.3176C127.133 77.7786 128.147 78.2107 129.481 78.614C131.94 79.3534 133.731 80.2705 134.854 81.3652C135.978 82.46 136.539 83.8236 136.539 85.4561C136.539 87.271 135.853 88.697 134.48 89.7341C133.106 90.7616 131.258 91.2754 128.934 91.2754C127.321 91.2754 125.851 90.9825 124.526 90.3967C123.201 89.8014 122.188 88.9899 121.487 87.9624C120.796 86.9349 120.45 85.7441 120.45 84.3901H124.786C124.786 86.7044 126.168 87.8616 128.934 87.8616C129.962 87.8616 130.763 87.6551 131.34 87.2422C131.916 86.8197 132.204 86.2339 132.204 85.4849ZM143.266 77.1016C144.371 75.7764 145.758 75.1138 147.429 75.1138C150.809 75.1138 152.523 77.0776 152.571 81.0051V90.9873H148.409V81.1204C148.409 80.2273 148.217 79.5695 147.832 79.147C147.448 78.7148 146.81 78.4988 145.917 78.4988C144.697 78.4988 143.814 78.9693 143.266 79.9104V90.9873H139.103V68.8623H143.266V77.1016ZM155.063 83.0505C155.063 81.5045 155.361 80.1265 155.956 78.9165C156.552 77.7065 157.406 76.7703 158.52 76.1077C159.644 75.4451 160.945 75.1138 162.424 75.1138C164.527 75.1138 166.241 75.7572 167.566 77.0439C168.901 78.3307 169.645 80.0785 169.799 82.2871L169.828 83.353C169.828 85.7441 169.16 87.6647 167.826 89.1147C166.491 90.5552 164.7 91.2754 162.453 91.2754C160.206 91.2754 158.41 90.5552 157.066 89.1147C155.731 87.6743 155.063 85.7153 155.063 83.2378V83.0505ZM159.226 83.353C159.226 84.8319 159.505 85.965 160.062 86.7524C160.619 87.5303 161.416 87.9192 162.453 87.9192C163.461 87.9192 164.249 87.5351 164.815 86.7668C165.382 85.989 165.665 84.7502 165.665 83.0505C165.665 81.6005 165.382 80.477 164.815 79.6799C164.249 78.8829 163.452 78.4844 162.424 78.4844C161.406 78.4844 160.619 78.8829 160.062 79.6799C159.505 80.4674 159.226 81.6917 159.226 83.353ZM186.422 83.3386C186.422 85.7393 185.874 87.6647 184.779 89.1147C183.694 90.5552 182.225 91.2754 180.372 91.2754C178.797 91.2754 177.525 90.728 176.555 89.6333V96.9795H172.392V75.4019H176.252L176.396 76.9287C177.404 75.7188 178.72 75.1138 180.343 75.1138C182.264 75.1138 183.757 75.8244 184.823 77.2456C185.889 78.6668 186.422 80.6258 186.422 83.1226V83.3386ZM182.259 83.0361C182.259 81.5861 181.999 80.4674 181.481 79.6799C180.972 78.8925 180.228 78.4988 179.248 78.4988C177.942 78.4988 177.044 78.9981 176.555 79.9968V86.3779C177.064 87.4054 177.971 87.9192 179.277 87.9192C181.265 87.9192 182.259 86.2915 182.259 83.0361ZM203.044 83.3386C203.044 85.7393 202.497 87.6647 201.402 89.1147C200.317 90.5552 198.848 91.2754 196.994 91.2754C195.419 91.2754 194.147 90.728 193.177 89.6333V96.9795H189.014V75.4019H192.875L193.019 76.9287C194.027 75.7188 195.343 75.1138 196.965 75.1138C198.886 75.1138 200.379 75.8244 201.445 77.2456C202.511 78.6668 203.044 80.6258 203.044 83.1226V83.3386ZM198.881 83.0361C198.881 81.5861 198.622 80.4674 198.103 79.6799C197.594 78.8925 196.85 78.4988 195.871 78.4988C194.565 78.4988 193.667 78.9981 193.177 79.9968V86.3779C193.686 87.4054 194.594 87.9192 195.9 87.9192C197.887 87.9192 198.881 86.2915 198.881 83.0361ZM210.03 90.9873H205.853V75.4019H210.03V90.9873ZM205.608 71.3687C205.608 70.7445 205.815 70.2307 206.227 69.8274C206.65 69.4241 207.221 69.2224 207.942 69.2224C208.652 69.2224 209.219 69.4241 209.641 69.8274C210.064 70.2307 210.275 70.7445 210.275 71.3687C210.275 72.0024 210.059 72.521 209.627 72.9243C209.204 73.3276 208.643 73.5293 207.942 73.5293C207.241 73.5293 206.674 73.3276 206.242 72.9243C205.819 72.521 205.608 72.0024 205.608 71.3687ZM217.304 75.4019L217.434 77.2024C218.548 75.81 220.041 75.1138 221.914 75.1138C223.565 75.1138 224.795 75.5987 225.601 76.5686C226.408 77.5385 226.821 78.9885 226.84 80.9187V90.9873H222.677V81.0195C222.677 80.1361 222.485 79.4975 222.101 79.1038C221.717 78.7004 221.078 78.4988 220.185 78.4988C219.014 78.4988 218.135 78.9981 217.549 79.9968V90.9873H213.386V75.4019H217.304ZM229.404 83.0793C229.404 80.6882 229.971 78.7629 231.104 77.3032C232.246 75.8436 233.783 75.1138 235.713 75.1138C237.422 75.1138 238.752 75.6995 239.703 76.8711L239.876 75.4019H243.65V90.4688C243.65 91.8324 243.338 93.0183 242.714 94.0266C242.099 95.0349 241.23 95.8031 240.106 96.3313C238.983 96.8595 237.667 97.1235 236.16 97.1235C235.017 97.1235 233.903 96.8931 232.818 96.4321C231.733 95.9808 230.912 95.395 230.355 94.6748L232.198 92.1396C233.236 93.3016 234.493 93.8826 235.972 93.8826C237.077 93.8826 237.936 93.5849 238.551 92.9895C239.165 92.4037 239.473 91.5683 239.473 90.4832V89.6477C238.512 90.7328 237.25 91.2754 235.684 91.2754C233.812 91.2754 232.294 90.5456 231.132 89.0859C229.98 87.6167 229.404 85.6721 229.404 83.2522V83.0793ZM233.567 83.3818C233.567 84.7935 233.85 85.9026 234.417 86.7092C234.983 87.5063 235.761 87.9048 236.75 87.9048C238.018 87.9048 238.925 87.4294 239.473 86.4788V79.9248C238.916 78.9741 238.018 78.4988 236.779 78.4988C235.78 78.4988 234.993 78.9069 234.417 79.7231C233.85 80.5394 233.567 81.759 233.567 83.3818Z" fill="white"/>
</g>
<defs>
<filter id="filter0_d" x="14.739" y="9.92318" width="103.656" height="102.342" filterUnits="userSpaceOnUse" color-interpolation-filters="sRGB">
<feFlood flood-opacity="0" result="BackgroundImageFix"/>
<feColorMatrix in="SourceAlpha" type="matrix" values="0 0 0 0 0 0 0 0 0 0 0 0 0 0 0 0 0 0 127 0"/>
<feOffset dy="4"/>
<feGaussianBlur stdDeviation="2"/>
<feColorMatrix type="matrix" values="0 0 0 0 0 0 0 0 0 0 0 0 0 0 0 0 0 0 0.25 0"/>
<feBlend mode="normal" in2="BackgroundImageFix" result="effect1_dropShadow"/>
<feBlend mode="normal" in="SourceGraphic" in2="effect1_dropShadow" result="shape"/>
</filter>
<filter id="filter1_d" x="116.45" y="33.8623" width="131.2" height="71.2612" filterUnits="userSpaceOnUse" color-interpolation-filters="sRGB">
<feFlood flood-opacity="0" result="BackgroundImageFix"/>
<feColorMatrix in="SourceAlpha" type="matrix" values="0 0 0 0 0 0 0 0 0 0 0 0 0 0 0 0 0 0 127 0"/>
<feOffset dy="4"/>
<feGaussianBlur stdDeviation="2"/>
<feColorMatrix type="matrix" values="0 0 0 0 0 0 0 0 0 0 0 0 0 0 0 0 0 0 0.25 0"/>
<feBlend mode="normal" in2="BackgroundImageFix" result="effect1_dropShadow"/>
<feBlend mode="normal" in="SourceGraphic" in2="effect1_dropShadow" result="shape"/>
</filter>
</defs>
</svg>
